<?xml version="1.0" encoding="utf-8"?>
<!-- Generator: Adobe Illustrator 21.0.0, SVG Export Plug-In . SVG Version: 6.00 Build 0)  -->
<svg version="1.1" id="Capa_1" focusable="false" xmlns:svg="http://www.w3.org/2000/svg"
	 xmlns="http://www.w3.org/2000/svg" xmlns:xlink="http://www.w3.org/1999/xlink" x="0px" y="0px" viewBox="0 0 233.5 60"
	 style="enable-background:new 0 0 233.5 60;" xml:space="preserve">
<style type="text/css">
	.st0{fill:#3FA5FB;}
	.st1{fill:#FFFFFF;}
	.st2{fill:#282828;}
</style>
<g>
	<g>
		<path class="st0" d="M63,14.9c-0.7-2.7-2.8-4.8-5.6-5.6C52.5,8,32.9,8,32.9,8S13.2,8,8.3,9.3c-2.7,0.7-4.8,2.8-5.6,5.6
			C1.5,19.8,1.5,30,1.5,30s0,10.2,1.3,15.1c0.7,2.7,2.8,4.8,5.6,5.6C13.2,52,32.9,52,32.9,52s19.7,0,24.6-1.3
			c2.7-0.7,4.8-2.8,5.6-5.6c1.3-4.9,1.3-15.1,1.3-15.1S64.3,19.8,63,14.9z"/>
		<polygon class="st1" points="26.6,39.4 42.9,30 26.6,20.6 		"/>
	</g>
	<g>
		<g id="youtube-paths">
			<path class="st2" d="M221.1,37.6V39c0,1.8,0.1,3.1,0.2,4c0.1,0.9,0.3,1.5,0.6,1.9c0.3,0.4,0.8,0.6,1.5,0.6c0.9,0,1.6-0.4,1.9-1.1
				s0.5-1.9,0.6-3.6l5.4,0.3c0,0.2,0,0.6,0,1c0,2.5-0.7,4.5-2.1,5.7s-3.4,1.9-5.9,1.9c-3.1,0-5.2-1-6.4-2.9C215.6,45,215,42,215,38
				v-4.8c0-4.1,0.6-7.1,1.9-9.1c1.3-1.9,3.4-2.9,6.5-2.9c2.1,0,3.8,0.4,4.9,1.2s1.9,2,2.4,3.6c0.5,1.6,0.7,3.9,0.7,6.8v4.7
				L221.1,37.6L221.1,37.6z M221.9,26c-0.3,0.4-0.5,1-0.6,1.9s-0.2,2.2-0.2,4v2h4.5v-2c0-1.8-0.1-3.1-0.2-4s-0.3-1.6-0.6-1.9
				s-0.8-0.6-1.5-0.6C222.7,25.4,222.2,25.6,221.9,26z"/>
			<g>
				<path class="st0" d="M96.2,48.9h-7.5L84.2,41c-0.3-0.6-0.7-1.1-1-1.6s-0.6-0.9-0.9-1.2c-0.3-0.3-0.6-0.6-1-0.8
					c-0.3-0.2-0.7-0.3-1.1-0.3h-1.8v11.7h-6.5V18.2h10.4c7,0,10.6,2.8,10.6,8.3c0,1.1-0.2,2.1-0.5,3s-0.7,1.7-1.3,2.4
					c-0.6,0.7-1.3,1.4-2.1,1.9c-0.8,0.5-1.7,0.9-2.7,1.2v0.1c0.4,0.1,0.9,0.4,1.3,0.7c0.4,0.3,0.8,0.7,1.2,1.1s0.7,0.9,1.1,1.4
					c0.3,0.5,0.7,1,0.9,1.4L96.2,48.9z M78.4,23.4v8.5h2.8c1.4,0,2.5-0.4,3.4-1.3c0.9-0.9,1.3-1.9,1.3-3.2c0-2.7-1.5-4-4.6-4H78.4z"
					/>
				<path class="st0" d="M115.9,39.8h-13.5c0.2,3.2,2.1,4.8,5.7,4.8c2.3,0,4.3-0.6,6-1.7v4.9c-1.9,1.1-4.4,1.6-7.5,1.6
					c-3.3,0-5.9-1-7.8-2.9c-1.8-2-2.8-4.7-2.8-8.2c0-3.6,1-6.5,3-8.6s4.5-3.2,7.4-3.2c3,0,5.4,0.9,7,2.8c1.7,1.9,2.5,4.5,2.5,7.7
					V39.8z M110,35.7c0-3.1-1.2-4.7-3.6-4.7c-1,0-1.9,0.4-2.7,1.3c-0.7,0.9-1.2,2-1.4,3.4H110z"/>
				<path class="st0" d="M137,48.9h-6.1v-3.1h-0.1c-1.4,2.5-3.4,3.7-6.2,3.7c-2,0-3.6-0.6-4.7-1.8s-1.7-2.8-1.7-4.8
					c0-4.3,2.4-6.7,7.1-7.4l5.6-0.8c0-2.4-1.2-3.6-3.7-3.6c-2.5,0-4.8,0.8-7,2.3v-5.1c0.9-0.5,2.1-0.9,3.7-1.3
					c1.5-0.4,3-0.6,4.2-0.6c5.9,0,8.9,3.1,8.9,9.3V48.9z M131,40v-1.5l-3.8,0.5c-2.1,0.3-3.1,1.3-3.1,3c0,0.8,0.3,1.4,0.8,1.9
					c0.5,0.5,1.2,0.7,2.1,0.7c1.2,0,2.2-0.4,2.9-1.3C130.6,42.4,131,41.3,131,40z"/>
				<path class="st0" d="M157.8,48.1c-1.4,0.9-3.5,1.3-6.3,1.3c-3.2,0-5.8-1-7.7-3.1c-2-2-3-4.7-3-7.9c0-3.7,1.1-6.7,3.2-8.8
					c2.1-2.1,4.9-3.2,8.5-3.2c2.4,0,4.2,0.3,5.3,1v5.7c-1.3-1.1-2.8-1.6-4.5-1.6c-1.8,0-3.3,0.6-4.4,1.7s-1.6,2.7-1.6,4.7
					c0,1.9,0.5,3.5,1.5,4.6c1,1.1,2.4,1.7,4.2,1.7c1.6,0,3.2-0.5,4.7-1.6V48.1z"/>
			</g>
			<path class="st2" d="M191.2,21.8v27.6h-4.9l-0.5-3.4h-0.1c-1.3,2.5-3.3,3.8-5.9,3.8c-1.8,0-3.2-0.6-4.1-1.8
				c-0.9-1.2-1.3-3.1-1.3-5.6V21.8h6.2V42c0,1.2,0.1,2.1,0.4,2.6c0.3,0.5,0.7,0.8,1.4,0.8c0.5,0,1.1-0.2,1.6-0.5s0.9-0.8,1.1-1.3
				V21.8H191.2z"/>
			<path class="st2" d="M176.3,16.6h-6.2v32.7H164V16.6h-6.2v-5h18.4L176.3,16.6L176.3,16.6z"/>
			<path class="st2" d="M211.7,26.2c-0.4-1.7-1-3-1.8-3.8c-0.8-0.8-2-1.2-3.5-1.2c-1.1,0-2.2,0.3-3.2,1c-1,0.6-1.8,1.5-2.3,2.5h-0.1
				V10.2h-6v39.1h5.1l0.6-2.6h0.1c0.5,0.9,1.2,1.7,2.2,2.2s2,0.8,3.2,0.8c2.1,0,3.6-1,4.6-2.9s1.5-5,1.5-9.1v-4.4
				C212.3,30.3,212.1,27.9,211.7,26.2z M206.1,37.4c0,2-0.1,3.6-0.3,4.7c-0.2,1.1-0.4,2-0.8,2.4s-0.9,0.7-1.6,0.7
				c-0.5,0-1-0.1-1.4-0.4c-0.4-0.2-0.8-0.6-1.1-1.1V28.2c0.2-0.8,0.6-1.4,1.1-1.8s1.1-0.7,1.7-0.7c0.6,0,1.1,0.3,1.5,0.7
				c0.3,0.5,0.6,1.3,0.7,2.5c0.1,1.2,0.2,2.8,0.2,5L206.1,37.4L206.1,37.4z"/>
		</g>
	</g>
</g>
</svg>
